<svg width="24" height="24" viewBox="0 0 24 24" fill="none" xmlns="http://www.w3.org/2000/svg">
<path d="M20.25 12H16.5V5.75C16.5 5.15326 16.2629 4.58097 15.841 4.15901C15.419 3.73705 14.8467 3.5 14.25 3.5H9.75C9.15326 3.5 8.58097 3.73705 8.15901 4.15901C7.73705 4.58097 7.5 5.15326 7.5 5.75V9H3.75C3.15326 9 2.58097 9.23705 2.15901 9.65901C1.73705 10.081 1.5 10.6533 1.5 11.25V18C1.5 18.3978 1.65804 18.7794 1.93934 19.0607C2.22064 19.342 2.60218 19.5 3 19.5H21C21.3978 19.5 21.7794 19.342 22.0607 19.0607C22.342 18.7794 22.5 18.3978 22.5 18V14.25C22.5 13.6533 22.2629 13.081 21.841 12.659C21.419 12.2371 20.8467 12 20.25 12ZM3 11.25C3 11.0511 3.07902 10.8603 3.21967 10.7197C3.36032 10.579 3.55109 10.5 3.75 10.5H7.5V18H3V11.25ZM9 5.75C9 5.55109 9.07902 5.36032 9.21967 5.21967C9.36032 5.07902 9.55109 5 9.75 5H14.25C14.4489 5 14.6397 5.07902 14.7803 5.21967C14.921 5.36032 15 5.55109 15 5.75V12.375V18H9V5.75ZM16.5 18V13.5H20.25C20.4489 13.5 20.6397 13.579 20.7803 13.7197C20.921 13.8603 21 14.0511 21 14.25V18H16.5Z" fill="#1C4980"/>
</svg>
