<svg width="24" height="24" viewBox="0 0 24 24" fill="none" xmlns="http://www.w3.org/2000/svg">
<path d="M7.99262 6.00738C7.99262 6.79997 8.22765 7.57476 8.66798 8.23377C9.10832 8.89278 9.73419 9.40641 10.4664 9.70972C11.1987 10.013 12.0044 10.0924 12.7818 9.93777C13.5592 9.78314 14.2732 9.40147 14.8336 8.84103C15.3941 8.28059 15.7758 7.56654 15.9304 6.78919C16.085 6.01183 16.0056 5.20608 15.7023 4.47382C15.399 3.74157 14.8854 3.1157 14.2264 2.67537C13.5674 2.23503 12.7926 2 12 2C10.9372 2 9.91788 2.42221 9.16635 3.17374C8.41482 3.92527 7.99262 4.94456 7.99262 6.00738ZM12 3.33579C12.5284 3.33579 13.0449 3.49248 13.4843 3.78604C13.9236 4.0796 14.266 4.49684 14.4682 4.98501C14.6704 5.47318 14.7233 6.01035 14.6203 6.52858C14.5172 7.04682 14.2627 7.52285 13.8891 7.89648C13.5155 8.27011 13.0394 8.52455 12.5212 8.62764C12.003 8.73072 11.4658 8.67782 10.9776 8.47561C10.4895 8.2734 10.0722 7.93098 9.77866 7.49164C9.4851 7.0523 9.32841 6.53577 9.32841 6.00738C9.32841 5.29883 9.60988 4.6193 10.1109 4.11828C10.6119 3.61726 11.2915 3.33579 12 3.33579Z" fill="#1C4980"/>
<path d="M20.0148 12.0452V10.3487C20.0148 10.239 19.9878 10.1311 19.9361 10.0343C19.8845 9.93753 19.8098 9.85498 19.7187 9.79391C19.6276 9.73285 19.5229 9.69516 19.4138 9.68417C19.3047 9.67318 19.1945 9.68923 19.0931 9.73091L15.3028 11.2804C14.3085 10.6704 13.1648 10.3475 11.9983 10.3475C10.8319 10.3475 9.68814 10.6704 8.69391 11.2804L4.90693 9.73091C4.80549 9.68923 4.69534 9.67318 4.58622 9.68417C4.47709 9.69516 4.37236 9.73285 4.28126 9.79391C4.19016 9.85498 4.11549 9.93753 4.06387 10.0343C4.01224 10.1311 3.98523 10.239 3.98523 10.3487V12.0452C3.43271 12.1294 2.92866 12.4089 2.56446 12.8328C2.20025 13.2568 2 13.7972 2 14.3561C2 14.915 2.20025 15.4554 2.56446 15.8794C2.92866 16.3033 3.43271 16.5828 3.98523 16.667V18.3635C3.98523 18.4959 4.0246 18.6253 4.09833 18.7354C4.17206 18.8454 4.27683 18.931 4.39933 18.9813L11.7462 21.9868H11.803L11.8698 22.0069C11.9557 22.024 12.0443 22.024 12.1302 22.0069L12.197 21.9868H12.2538L19.6007 18.9813C19.7232 18.931 19.8279 18.8454 19.9017 18.7354C19.9754 18.6253 20.0148 18.4959 20.0148 18.3635V16.667C20.5673 16.5828 21.0713 16.3033 21.4355 15.8794C21.7997 15.4554 22 14.915 22 14.3561C22 13.7972 21.7997 13.2568 21.4355 12.8328C21.0713 12.4089 20.5673 12.1294 20.0148 12.0452ZM13.643 11.9617L12 12.6296L10.357 11.9617C11.4222 11.5986 12.5778 11.5986 13.643 11.9617ZM3.31734 14.3561C3.31723 14.1488 3.38141 13.9466 3.50103 13.7774C3.62065 13.6081 3.78982 13.4801 3.98523 13.411V15.3012C3.78982 15.2321 3.62065 15.1041 3.50103 14.9348C3.38141 14.7656 3.31723 14.5634 3.31734 14.3561ZM5.32103 11.3506L8.50356 12.653L11.3321 13.8017V20.3672L5.32103 17.916V11.3506ZM18.679 17.916L12.6679 20.3672V13.8017L18.679 11.3506V17.916ZM20.0148 15.3012V13.411C20.2105 13.4799 20.38 13.6078 20.4999 13.777C20.6198 13.9463 20.6842 14.1487 20.6842 14.3561C20.6842 14.5635 20.6198 14.7659 20.4999 14.9352C20.38 15.1044 20.2105 15.2323 20.0148 15.3012Z" fill="#1C4980"/>
</svg>
