<svg width="24" height="24" viewBox="0 0 24 24" fill="none" xmlns="http://www.w3.org/2000/svg">
<path d="M12 5.07692C12.204 5.07692 12.3997 4.99588 12.5439 4.85162C12.6882 4.70736 12.7692 4.51171 12.7692 4.30769V2.76923C12.7692 2.56522 12.6882 2.36956 12.5439 2.2253C12.3997 2.08104 12.204 2 12 2C11.796 2 11.6003 2.08104 11.4561 2.2253C11.3118 2.36956 11.2308 2.56522 11.2308 2.76923V4.30769C11.2308 4.51171 11.3118 4.70736 11.4561 4.85162C11.6003 4.99588 11.796 5.07692 12 5.07692ZM19.2385 4.76154C19.0943 4.61827 18.8994 4.53785 18.6962 4.53785C18.4929 4.53785 18.298 4.61827 18.1538 4.76154L17.0692 5.84615C16.926 5.99028 16.8455 6.18524 16.8455 6.38846C16.8455 6.59168 16.926 6.78664 17.0692 6.93077C17.2113 7.0757 17.4048 7.15865 17.6077 7.16154C17.7095 7.16112 17.8101 7.1405 17.9039 7.10089C17.9976 7.06128 18.0826 7.00345 18.1538 6.93077L19.2385 5.84615C19.3817 5.70203 19.4621 5.50707 19.4621 5.30385C19.4621 5.10063 19.3817 4.90566 19.2385 4.76154ZM5.84615 6.93077C5.9174 7.00345 6.00235 7.06128 6.0961 7.10089C6.18985 7.1405 6.29053 7.16112 6.39231 7.16154C6.59521 7.15865 6.78875 7.0757 6.93077 6.93077C7.07404 6.78664 7.15446 6.59168 7.15446 6.38846C7.15446 6.18524 7.07404 5.99028 6.93077 5.84615L5.84615 4.76154C5.699 4.63552 5.50971 4.56967 5.31611 4.57715C5.12252 4.58462 4.93887 4.66488 4.80187 4.80187C4.66488 4.93887 4.58462 5.12252 4.57715 5.31611C4.56967 5.50971 4.63552 5.699 4.76154 5.84615L5.84615 6.93077ZM21.2308 11.2308H19.6923C19.4883 11.2308 19.2926 11.3118 19.1484 11.4561C19.0041 11.6003 18.9231 11.796 18.9231 12C18.9231 12.204 19.0041 12.3997 19.1484 12.5439C19.2926 12.6882 19.4883 12.7692 19.6923 12.7692H21.2308C21.4348 12.7692 21.6304 12.6882 21.7747 12.5439C21.919 12.3997 22 12.204 22 12C22 11.796 21.919 11.6003 21.7747 11.4561C21.6304 11.3118 21.4348 11.2308 21.2308 11.2308ZM4.30769 11.2308H2.76923C2.56522 11.2308 2.36956 11.3118 2.2253 11.4561C2.08104 11.6003 2 11.796 2 12C2 12.204 2.08104 12.3997 2.2253 12.5439C2.36956 12.6882 2.56522 12.7692 2.76923 12.7692H4.30769C4.51171 12.7692 4.70736 12.6882 4.85162 12.5439C4.99588 12.3997 5.07692 12.204 5.07692 12C5.07692 11.796 4.99588 11.6003 4.85162 11.4561C4.70736 11.3118 4.51171 11.2308 4.30769 11.2308ZM12 5.84615C10.574 5.84887 9.19317 6.34675 8.09356 7.2547C6.99394 8.16265 6.24378 9.4243 5.97128 10.824C5.69878 12.2238 5.92086 13.6747 6.59956 14.9289C7.27826 16.183 8.37146 17.1625 9.69231 17.7V18.9231C9.69231 19.1271 9.77335 19.3227 9.91761 19.467C10.0619 19.6113 10.2575 19.6923 10.4615 19.6923H13.5385C13.7425 19.6923 13.9381 19.6113 14.0824 19.467C14.2266 19.3227 14.3077 19.1271 14.3077 18.9231V17.7C15.6285 17.1625 16.7217 16.183 17.4004 14.9289C18.0791 13.6747 18.3012 12.2238 18.0287 10.824C17.7562 9.4243 17.0061 8.16265 15.9064 7.2547C14.8068 6.34675 13.426 5.84887 12 5.84615ZM13.3154 16.4231C13.1519 16.4725 13.0094 16.5749 12.9105 16.7141C12.8117 16.8534 12.7619 17.0216 12.7692 17.1923V18.1538H11.2308V17.1615C11.2381 16.9909 11.1883 16.8226 11.0895 16.6834C10.9906 16.5441 10.8481 16.4417 10.6846 16.3923C9.62168 16.0763 8.70807 15.3881 8.11093 14.4537C7.51378 13.5193 7.27303 12.4011 7.43272 11.3037C7.5924 10.2064 8.14185 9.20316 8.98054 8.47769C9.81922 7.75221 10.8911 7.35295 12 7.35295C13.1089 7.35295 14.1808 7.75221 15.0195 8.47769C15.8581 9.20316 16.4076 10.2064 16.5673 11.3037C16.727 12.4011 16.4862 13.5193 15.8891 14.4537C15.2919 15.3881 14.3783 16.0763 13.3154 16.3923V16.4231ZM13.5385 20.4615H10.4615C10.2575 20.4615 10.0619 20.5426 9.91761 20.6868C9.77335 20.8311 9.69231 21.0268 9.69231 21.2308C9.69231 21.4348 9.77335 21.6304 9.91761 21.7747C10.0619 21.919 10.2575 22 10.4615 22H13.5385C13.7425 22 13.9381 21.919 14.0824 21.7747C14.2266 21.6304 14.3077 21.4348 14.3077 21.2308C14.3077 21.0268 14.2266 20.8311 14.0824 20.6868C13.9381 20.5426 13.7425 20.4615 13.5385 20.4615Z" fill="#1C4980"/>
</svg>
