<svg width="24" height="24" viewBox="0 0 24 24" fill="none" xmlns="http://www.w3.org/2000/svg">
<path d="M13.4433 10.6608C13.2214 10.6608 13.0066 10.6868 12.7989 10.7386L14.0098 11.9486C14.5787 12.175 14.98 12.7293 14.98 13.3756C14.98 14.2222 14.2907 14.911 13.4434 14.911C13.0412 14.9118 12.6551 14.7532 12.3695 14.47L12.2727 14.5668L10.7479 13.0432C10.7338 13.1517 10.7266 13.2625 10.7266 13.3757C10.7266 14.871 11.9469 16.0904 13.4434 16.0904C14.9423 16.0904 16.1602 14.871 16.1602 13.3757C16.1601 11.8777 14.9421 10.6608 13.4433 10.6608ZM13.4433 10.6608C13.2214 10.6608 13.0066 10.6868 12.7989 10.7386L14.0098 11.9486C14.5787 12.175 14.98 12.7293 14.98 13.3756C14.98 14.2222 14.2907 14.911 13.4434 14.911C13.0412 14.9118 12.6551 14.7532 12.3695 14.47L12.2727 14.5668L10.7479 13.0432C10.7338 13.1517 10.7266 13.2625 10.7266 13.3757C10.7266 14.871 11.9469 16.0904 13.4434 16.0904C14.9423 16.0904 16.1602 14.871 16.1602 13.3757C16.1601 11.8777 14.9421 10.6608 13.4433 10.6608ZM13.4433 7.71961C12.4307 7.71829 11.4366 7.99047 10.566 8.50738L11.4345 9.37531C12.0576 9.06142 12.7456 8.89824 13.4433 8.89892C15.9146 8.89892 17.9234 10.9061 17.9234 13.3754C17.9234 15.8424 15.9146 17.8519 13.4433 17.8519C10.9743 17.8519 8.96318 15.8424 8.96318 13.3754C8.96318 12.7528 9.09061 12.1584 9.322 11.6183L8.4392 10.7362C8.01901 11.524 7.78308 12.4225 7.78308 13.3754C7.78308 16.4933 10.3228 19.0312 13.4434 19.0312C16.5638 19.0312 19.1038 16.4935 19.1038 13.3754C19.1036 10.2573 16.5638 7.71961 13.4433 7.71961ZM13.4433 14.9107C13.0411 14.9114 12.6549 14.7529 12.3693 14.4697L12.2726 14.5665L10.7477 13.0429C10.7336 13.1514 10.7264 13.2622 10.7264 13.3754C10.7264 14.8706 11.9468 16.09 13.4433 16.09C14.9421 16.09 16.1601 14.8706 16.1601 13.3754C16.1601 11.8778 14.9421 10.6608 13.4433 10.6608C13.2214 10.6608 13.0066 10.6868 12.7989 10.7386L14.0098 11.9486C14.5787 12.175 14.98 12.7293 14.98 13.3756C14.98 14.222 14.2907 14.9107 13.4433 14.9107ZM13.4433 7.71961C12.4307 7.71829 11.4366 7.99047 10.566 8.50738L11.4345 9.37531C12.0576 9.06142 12.7456 8.89824 13.4433 8.89892C15.9146 8.89892 17.9234 10.9061 17.9234 13.3754C17.9234 15.8424 15.9146 17.8519 13.4433 17.8519C10.9743 17.8519 8.96318 15.8424 8.96318 13.3754C8.96318 12.7528 9.09061 12.1584 9.322 11.6183L8.4392 10.7362C8.01901 11.524 7.78308 12.4225 7.78308 13.3754C7.78308 16.4933 10.3228 19.0312 13.4434 19.0312C16.5638 19.0312 19.1038 16.4935 19.1038 13.3754C19.1036 10.2573 16.5638 7.71961 13.4433 7.71961ZM13.4433 14.9107C13.0411 14.9114 12.6549 14.7529 12.3693 14.4697L12.2726 14.5665L10.7477 13.0429C10.7336 13.1514 10.7264 13.2622 10.7264 13.3754C10.7264 14.8706 11.9468 16.09 13.4433 16.09C14.9421 16.09 16.1601 14.8706 16.1601 13.3754C16.1601 11.8778 14.9421 10.6608 13.4433 10.6608C13.2214 10.6608 13.0066 10.6868 12.7989 10.7386L14.0098 11.9486C14.5787 12.175 14.98 12.7293 14.98 13.3756C14.98 14.222 14.2907 14.9107 13.4433 14.9107ZM13.4433 4.82572C11.6613 4.82345 9.92344 5.38025 8.47458 6.41771L9.322 7.26435C10.5389 6.4419 11.9745 6.00319 13.4433 6.00488C17.5102 6.00488 20.8196 9.3116 20.8196 13.3753C20.8196 17.4389 17.5104 20.7456 13.4433 20.7456C9.37632 20.7456 6.06694 17.4389 6.06694 13.3753C6.06499 11.998 6.45202 10.6482 7.18348 9.4813L6.33136 8.62981C5.38763 10.0323 4.8846 11.6849 4.88684 13.3754C4.88684 18.0902 8.72491 21.9251 13.4434 21.9251C18.1619 21.9251 22 18.0902 22 13.3754C22 8.66065 18.1618 4.82572 13.4433 4.82572ZM13.4433 19.0311C16.5637 19.0311 19.1036 16.4933 19.1036 13.3753C19.1036 10.2573 16.5638 7.71945 13.4433 7.71945C12.4307 7.71814 11.4366 7.99031 10.566 8.50723L11.4345 9.37516C12.0576 9.06126 12.7456 8.89809 13.4433 8.89877C15.9146 8.89877 17.9234 10.9059 17.9234 13.3753C17.9234 15.8422 15.9146 17.8517 13.4433 17.8517C10.9743 17.8517 8.96318 15.8422 8.96318 13.3753C8.96318 12.7526 9.09061 12.1582 9.322 11.6181L8.4392 10.7361C8.01901 11.524 7.78308 12.4225 7.78308 13.3754C7.78308 16.4933 10.3228 19.0311 13.4433 19.0311ZM13.4433 14.9107C13.0411 14.9114 12.6549 14.7529 12.3693 14.4697L10.7477 13.0427C10.7336 13.1512 10.7264 13.2621 10.7264 13.3753C10.7264 14.8705 11.9468 16.0899 13.4433 16.0899C14.9421 16.0899 16.1601 14.8705 16.1601 13.3753C16.1601 11.8777 14.9421 10.6606 13.4433 10.6606C13.2214 10.6606 13.0066 10.6866 12.7989 10.7384L14.0098 11.9484C14.5787 12.1748 14.98 12.7292 14.98 13.3754C14.98 14.222 14.2907 14.9107 13.4433 14.9107ZM13.4433 13.3742L13.4425 13.3751C13.3112 13.5091 13.132 13.5855 12.9444 13.5876C12.7568 13.5896 12.576 13.5171 12.4418 13.3861L5.07565 6.19133L4.48356 6.36558L2 4.31395L4.18345 4.25493L3.89539 2.00024L6.00119 4.3188L5.91117 5.02846L13.4323 12.3735C13.4988 12.4384 13.5519 12.5158 13.5884 12.6013C13.625 12.6867 13.6443 12.7786 13.6454 12.8715C13.6464 12.9645 13.6291 13.0567 13.5944 13.143C13.5597 13.2292 13.5083 13.3078 13.4433 13.3742Z" fill="#1C4980"/>
</svg>
