<svg width="24" height="24" viewBox="0 0 24 24" fill="none" xmlns="http://www.w3.org/2000/svg">
<g clip-path="url(#clip0_12347_59303)">
<path d="M11.7213 23.4305C18.1948 23.4305 23.4426 18.1854 23.4426 11.7153C23.4426 5.24511 18.1948 0 11.7213 0C5.2478 0 0 5.24511 0 11.7153C0 18.1854 5.2478 23.4305 11.7213 23.4305Z" fill="#1C4980"/>
<path d="M8.46935 16.8224V15.7085C7.77007 16.7702 6.91351 17.2226 5.63738 17.2226C3.60948 17.2226 2.47321 16.0564 2.47321 13.968V7.42407H4.92047V13.4635C4.92047 14.5948 5.44503 15.1518 6.49375 15.1518C7.69995 15.1518 8.46895 14.421 8.46895 13.3071V7.42407H10.9162V16.8224H8.46895H8.46935Z" fill="white"/>
<path d="M15.6879 7.42443V8.78208C16.3872 7.72044 17.2438 7.26782 18.5199 7.26782C20.5478 7.26782 21.6841 8.434 21.6841 10.5224V16.8228H19.2368V11.0271C19.2368 9.91321 18.7123 9.33883 17.6635 9.33883C16.4573 9.33883 15.6883 10.0698 15.6883 11.1837V16.8228H13.2411V7.42443H15.6883H15.6879Z" fill="white"/>
</g>
<defs>
<clipPath id="clip0_12347_59303">
<rect width="24" height="24" fill="white"/>
</clipPath>
</defs>
</svg>
